<svg width="85" height="87" fill="none" xmlns="http://www.w3.org/2000/svg"><g filter="url(#filter0_f_64_24)"><path d="M4.772 40.275C2.53 33.68 5.88 26.45 12.253 24.13l37.51-13.655c6.373-2.32 13.357 1.146 15.6 7.742L76.74 51.692c2.242 6.596-1.108 13.825-7.481 16.145l-37.51 13.655c-6.373 2.32-13.357-1.146-15.6-7.742L4.773 40.275z" fill="#4755D7"/></g><rect width="67.331" height="65.702" rx="11" transform="matrix(.94065 -.33939 .3244 .94592 0 22.851)" fill="#0E133F"/><rect width="64.334" height="65.133" rx="11" transform="matrix(.94065 -.33939 .3244 .94592 3.355 22.039)" fill="#fff"/><g filter="url(#filter1_f_64_24)"><path d="M8.957 32.376c-1.42-3.747 2.062-10.224 3.59-11.78 4.4-1.62 1.131 0 0 4.543-.293 1.18-1.397 4.098-.956 5.673l8.163 25.546 5.178 13.473 4.336 3.951c.848 1.377 4.377 2.98 5.782 3.456-6.043 1.53-11.132-2.202-11.626-4.379-4.23-11.932-13.046-36.735-14.467-40.483z" fill="#BEC4F8"/></g><path fill-rule="evenodd" clip-rule="evenodd" d="M4.995 38.376l3.859.97 21.02-7.943.17.471-21.094 7.97a.247.247 0 01-.147.009l-3.934-.99.126-.487zm1.827 5.436l4.372 1.049 31.263-11.87.17.47-31.334 11.897a.247.247 0 01-.145.01L6.7 44.3l.12-.49z" fill="#050D4E"/><path d="M31.574 31.7c0 .867-.755 1.568-1.686 1.568-.932 0-1.687-.701-1.687-1.567s.755-1.568 1.687-1.568c.931 0 1.686.702 1.686 1.568zm12.976 1.32c0 .865-.755 1.567-1.687 1.567-.931 0-1.686-.702-1.686-1.567 0-.866.755-1.568 1.686-1.568.932 0 1.687.702 1.687 1.568zm23.065 15.757c-.021-.203.236-.308.357-.146l1.947 2.61c.055.075.155.1.24.061l2.932-1.347c.183-.084.358.127.244.295l-1.828 2.72a.203.203 0 00.015.247l2.156 2.447c.134.151-.016.386-.208.328l-3.07-.938a.2.2 0 00-.232.095l-1.596 2.849c-.1.178-.367.113-.371-.09l-.08-3.298a.197.197 0 00-.155-.19l-3.152-.68c-.196-.042-.21-.317-.021-.386l3.03-1.096a.204.204 0 00.133-.213l-.341-3.268z" fill="#050D4E"/><defs><filter id="filter0_f_64_24" x=".076" y="5.754" width="81.36" height="80.459" filterUnits="userSpaceOnUse" color-interpolation-filters="sRGB"><feFlood flood-opacity="0" result="BackgroundImageFix"/><feBlend in="SourceGraphic" in2="BackgroundImageFix" result="shape"/><feGaussianBlur stdDeviation="2" result="effect1_foregroundBlur_64_24"/></filter><filter id="filter1_f_64_24" x="5.624" y="16.983" width="32.426" height="63.612" filterUnits="userSpaceOnUse" color-interpolation-filters="sRGB"><feFlood flood-opacity="0" result="BackgroundImageFix"/><feBlend in="SourceGraphic" in2="BackgroundImageFix" result="shape"/><feGaussianBlur stdDeviation="1.5" result="effect1_foregroundBlur_64_24"/></filter></defs></svg>